<svg version="1.2" xmlns="http://www.w3.org/2000/svg" viewBox="0 0 512 512" width="512" height="512"><style>.a{fill:#c95e28}.b{fill:#fff}</style><path fill-rule="evenodd" class="a" d="m115 52h282c35.3 0 64 28.7 64 64v279c0 35.3-28.7 64-64 64h-282c-35.3 0-64-28.7-64-64v-279c0-35.3 28.7-64 64-64z"/><path class="b" d="m378.7 125.6v262.4h-22.3v-239.8h-6.6q-55.9 0-93.8 40.3-37.9-40.3-93.8-40.3h-6.3v239.8h-22.6v-262.4h28.9q51.8 0 93.8 32.7 42.1-32.7 93.8-32.7zm-35.1 35.5v226.9h-22.5v-200.2q-5.3 1.4-10.8 4.2-18.8 8.7-32.3 24.7l-21.9 25.7-21.9-25.7q-13.6-16-32.3-24.7-6.3-3.1-10.8-4.2v200.2h-22.3v-226.9q22.3 1 42.4 10.4 24 11.1 40 30.6l4.9 5.9 4.8-5.9q32-38.6 82.7-41z"/></svg>